<svg width="512" height="512" viewBox="0 0 512 512" fill="none" xmlns="http://www.w3.org/2000/svg">
<path fill-rule="evenodd" clip-rule="evenodd" d="M194.015 42.2411C188.117 56.3747 188.915 62.5286 199.941 88.0098C210.856 113.232 214.786 136.709 209.689 146.248C205.614 153.868 208.969 154.058 222.758 146.974C257.256 129.258 254.355 99.4798 215.284 70.2467L200.516 59.1998L201.792 45.8928C203.29 30.2729 199.71 28.5917 194.015 42.2411Z" fill="#DECCC2"/>
<path fill-rule="evenodd" clip-rule="evenodd" d="M164.197 199.748C143.185 202.665 126.06 208.841 126.06 213.504C126.06 224.139 181.513 231.673 242.798 229.363C315.369 226.627 342.138 214.517 300.671 203.183C282.569 198.232 191.611 195.944 164.197 199.748Z" fill="#EDB38E"/>
<path d="M26 308.136C32.1814 308.025 39.5372 304.819 43.9525 301.061C48.3677 297.192 51.4584 291.665 53.2246 284.481C55.1011 277.185 56.0945 263.258 56.2049 242.698C56.3153 222.581 56.7016 209.206 57.3639 202.574C58.5781 191.852 61.3376 182.954 65.6425 175.88C68.7332 170.685 72.8726 166.927 78.0605 164.605C83.2485 162.284 90.2577 161.124 99.0883 161.124H109.384V182.887H102.4C93.1277 182.887 86.8911 189.199 83.69 193.289C80.5993 197.268 79.054 206.553 79.054 221.144C79.054 251.652 79.3851 273.515 78.0605 281.695C75.5815 297.003 74.4451 299.384 70.4713 305.353C66.4975 311.211 59.767 314.627 51.9298 319.269C61.5331 324.243 70.0044 331.256 74.6405 341.536C79.2765 351.815 79.054 370.864 79.054 395.071C79.054 419.499 79.4403 433.758 80.213 437.848C81.3168 443.706 83.3589 447.796 86.3392 450.117C89.3195 452.549 94.673 455.651 102.4 455.651H109.384V477.918H99.0883C89.5954 477.918 82.4758 478.58 77.7294 476.148C72.9829 473.827 69.1196 470.4 66.1393 465.868C62.0551 459.678 59.406 452.438 58.1917 444.148C56.9775 435.858 56.3153 420.549 56.2049 398.221C56.0945 377.662 55.1011 363.734 53.2246 356.439C51.3481 349.033 49.7611 342.4 45.4562 338.752C41.1513 334.994 32.2918 330.623 26 330.402V308.136Z" fill="white"/>
<path fill-rule="evenodd" clip-rule="evenodd" d="M390.381 231.595H430.943C462.5 231.595 486 259.502 486 291.222V350.1C486 381.82 462.5 409.727 430.943 409.727H390.363C390.108 425.895 389.484 437.369 388.491 444.148C387.277 452.438 384.628 459.678 380.544 465.868C377.563 470.4 373.7 473.827 368.953 476.148C365.084 478.13 359.638 478.057 352.616 477.962C351.023 477.94 349.349 477.918 347.594 477.918H337.299V455.651H344.283C352.01 455.651 357.363 452.549 360.344 450.117C363.324 447.796 365.366 443.706 366.47 437.848C367.242 433.758 367.629 419.499 367.629 395.071C367.629 394 367.628 392.939 367.628 391.889C367.619 369.196 367.611 351.361 372.042 341.536C376.678 331.256 385.15 324.243 394.753 319.269C393.769 318.686 392.802 318.123 391.856 317.571C385.269 313.73 379.686 310.475 376.211 305.353C372.238 299.384 371.101 297.003 368.622 281.695C367.531 274.957 367.564 258.937 367.609 236.449C367.619 231.634 367.629 226.524 367.629 221.144C367.629 206.553 366.083 197.268 362.993 193.289C359.792 189.199 353.555 182.887 344.283 182.887H337.299V161.124H347.594C356.425 161.124 363.434 162.284 368.622 164.605C373.81 166.927 377.95 170.685 381.04 175.88C385.345 182.954 388.105 191.852 389.319 202.574C389.851 207.9 390.205 217.573 390.381 231.595ZM402.73 301.061C407.146 304.819 414.501 308.025 420.683 308.136V330.402C414.391 330.623 405.531 334.994 401.227 338.752C397.035 342.304 395.42 348.686 393.606 355.855C393.557 356.049 393.508 356.244 393.458 356.439C392.028 361.999 391.111 371.412 390.706 384.677H430.943C446.384 384.677 460.985 370.407 460.985 350.1V291.222C460.985 270.914 446.384 256.645 430.943 256.645H390.719C391.129 269.698 392.043 278.977 393.458 284.481C395.224 291.665 398.315 297.192 402.73 301.061Z" fill="white"/>
</svg>
