<svg width="150" height="145" viewBox="0 0 150 145" fill="none" xmlns="http://www.w3.org/2000/svg">
<path fill-rule="evenodd" clip-rule="evenodd" d="M54.6226 3.00016C52.7051 7.58872 52.9645 9.58661 56.5491 17.8592C60.0976 26.0478 61.3753 33.6697 59.7181 36.7664C58.3934 39.2405 59.484 39.302 63.9669 37.0023C75.1825 31.2508 74.2392 21.583 61.537 12.0923L56.7361 8.50589L57.1509 4.18571C57.6379 -0.885379 56.4741 -1.43116 54.6226 3.00016Z" fill="#DECCC2"/>
<path fill-rule="evenodd" clip-rule="evenodd" d="M44.9286 54.1357C38.0973 55.0827 32.5301 57.0878 32.5301 58.6014C32.5301 62.0541 50.5581 64.5002 70.4819 63.7502C94.0753 62.8619 102.778 58.9303 89.297 55.2508C83.4117 53.6432 53.841 52.9005 44.9286 54.1357Z" fill="#EDB38E"/>
<path d="M0 89.3243C2.0096 89.2884 4.401 88.2474 5.83643 87.0273C7.27186 85.7713 8.27666 83.977 8.85083 81.6444C9.46089 79.276 9.78386 74.7544 9.81975 68.0796C9.85563 61.5484 9.98123 57.2062 10.1965 55.0531C10.5913 51.5722 11.4884 48.6834 12.888 46.3867C13.8928 44.7001 15.2385 43.4799 16.9251 42.7263C18.6118 41.9727 20.8905 41.5959 23.7614 41.5959H27.1084V48.6616H24.8379C21.8235 48.6616 19.796 50.7109 18.7553 52.0387C17.7505 53.3306 17.2481 56.345 17.2481 61.0819C17.2481 70.9864 17.3558 78.0844 16.9251 80.7399C16.1192 85.7098 15.7497 86.4828 14.4578 88.4206C13.1659 90.3226 10.9778 91.4315 8.42991 92.9387C11.552 94.5536 14.3061 96.8303 15.8133 100.168C17.3205 103.505 17.2481 109.689 17.2481 117.548C17.2481 125.479 17.3737 130.108 17.6249 131.436C17.9838 133.338 18.6476 134.666 19.6166 135.419C20.5855 136.209 22.3259 137.216 24.8379 137.216H27.1084V144.445H23.7614C20.6752 144.445 18.3606 144.66 16.8175 143.87C15.2744 143.117 14.0184 142.004 13.0495 140.533C11.7217 138.523 10.8604 136.173 10.4657 133.481C10.0709 130.79 9.85563 125.82 9.81975 118.571C9.78386 111.896 9.46089 107.374 8.85083 105.006C8.24078 102.602 7.72484 100.448 6.3253 99.264C4.92576 98.0439 2.04549 96.6249 0 96.5532V89.3243Z" fill="white"/>
<path fill-rule="evenodd" clip-rule="evenodd" d="M118.462 64.4749H131.649C141.908 64.4749 149.548 73.535 149.548 83.8331V102.948C149.548 113.246 141.908 122.306 131.649 122.306H118.456C118.373 127.555 118.17 131.28 117.848 133.481C117.453 136.173 116.592 138.523 115.264 140.533C114.295 142.004 113.039 143.117 111.496 143.87C110.238 144.514 108.467 144.49 106.184 144.459C105.667 144.452 105.122 144.445 104.552 144.445H101.205V137.216H103.475C105.987 137.216 107.728 136.209 108.697 135.419C109.666 134.666 110.329 133.338 110.688 131.436C110.94 130.108 111.065 125.479 111.065 117.548C111.065 117.2 111.065 116.856 111.065 116.515C111.062 109.148 111.059 103.357 112.5 100.168C114.007 96.8303 116.761 94.5536 119.883 92.9387C119.563 92.7495 119.249 92.5665 118.942 92.3874C116.8 91.1405 114.985 90.0838 113.855 88.4206C112.564 86.4828 112.194 85.7098 111.388 80.7399C111.033 78.5526 111.044 73.3515 111.059 66.0506C111.062 64.4876 111.065 62.8284 111.065 61.0819C111.065 56.345 110.563 53.3306 109.558 52.0387C108.517 50.7109 106.49 48.6616 103.475 48.6616H101.205V41.5959H104.552C107.423 41.5959 109.701 41.9727 111.388 42.7263C113.075 43.4799 114.42 44.7001 115.425 46.3867C116.825 48.6834 117.722 51.5722 118.117 55.0531C118.29 56.7821 118.405 59.9227 118.462 64.4749ZM122.477 87.0273C123.912 88.2474 126.304 89.2884 128.313 89.3243V96.5532C126.268 96.6249 123.387 98.0439 121.988 99.264C120.625 100.417 120.1 102.489 119.51 104.817C119.494 104.88 119.478 104.943 119.462 105.006C118.997 106.811 118.699 109.867 118.568 114.174H131.649C136.669 114.174 141.416 109.541 141.416 102.948V83.8331C141.416 77.2401 136.669 72.6074 131.649 72.6074H118.572C118.705 76.8452 119.002 79.8576 119.462 81.6444C120.037 83.977 121.041 85.7713 122.477 87.0273Z" fill="white"/>
</svg>
